<svg width="41" height="40" viewBox="0 0 41 40" fill="none" xmlns="http://www.w3.org/2000/svg">
<g clip-path="url(#clip0_1_46)">
<g clip-path="url(#clip1_1_46)">
<g clip-path="url(#clip2_1_46)">
<path d="M20.5 39.6C31.3248 39.6 40.1 30.8248 40.1 20C40.1 9.17524 31.3248 0.400024 20.5 0.400024C9.67521 0.400024 0.899994 9.17524 0.899994 20C0.899994 30.8248 9.67521 39.6 20.5 39.6Z" stroke="#F5CB72" stroke-width="0.8" stroke-dasharray="4 4"/>
<path d="M17.0868 24.7959L29.0909 13.1085C29.2975 12.9073 29.543 12.8045 29.8271 12.8002C30.1112 12.7959 30.3611 12.8986 30.5766 13.1085C30.7922 13.3183 30.9 13.5595 30.9 13.8318C30.9 14.1041 30.7922 14.3452 30.5766 14.5551L17.966 26.8331C17.7148 27.0777 17.4218 27.2 17.0868 27.2C16.7519 27.2 16.4588 27.0777 16.2077 26.8331L10.4061 21.1846C10.1994 20.9834 10.0974 20.7444 10.1001 20.4678C10.1027 20.1911 10.2118 19.9479 10.4274 19.738C10.643 19.5281 10.8906 19.4231 11.1703 19.4231C11.45 19.4231 11.6976 19.5281 11.9132 19.738L17.0868 24.7959Z" fill="white"/>
</g>
</g>
</g>
<defs>
<clipPath id="clip0_1_46">
<rect width="40" height="40" fill="white" transform="translate(0.5)"/>
</clipPath>
<clipPath id="clip1_1_46">
<rect width="40" height="40" fill="white" transform="translate(0.5)"/>
</clipPath>
<clipPath id="clip2_1_46">
<rect width="40" height="40" fill="white" transform="translate(0.5)"/>
</clipPath>
</defs>
</svg>
